<svg width="28" height="28" viewBox="0 0 28 28" fill="none" xmlns="http://www.w3.org/2000/svg">
<path d="M15.2425 11.8212C15.2425 11.8212 21.5797 1.66906 21.7241 1.41531C21.8684 1.16156 21.8991 0.695618 21.5009 0.695618C21.1028 0.695618 11.2306 10.7734 11.2306 10.7734L4.21969 14.9297C4.21969 14.9297 3.74937 15.2184 3.82156 15.5794C3.89375 15.9403 4.20875 15.9556 4.35312 15.9556C4.4975 15.9556 11.9766 15.9162 12.4119 15.9031C12.9522 15.8878 12.8187 16.6556 12.8187 16.6556L8.085 24.0975C8.085 24.0975 6.01781 26.9587 6.01781 27.1534C6.01781 27.44 6.36344 27.5822 6.685 27.3897C6.93437 27.2409 23.0562 13.58 23.7672 12.6416C23.9597 12.3856 24.0581 11.7119 23.2641 11.7119C22.47 11.7119 16.1459 13.5537 16.1459 13.5537L15.2425 11.8212Z" fill="#FEB804"/>
<path d="M14.1334 11.0141C13.9388 11.2809 13.8863 11.7272 14.3063 11.7534C14.7241 11.7775 23.2641 11.7141 23.2641 11.7141C23.2641 11.7141 17.1631 17.3206 15.3169 18.9941C13.4706 20.6675 7.35657 26.0881 6.94532 26.4709C6.54282 26.8472 6.17751 27.1928 6.02876 27.1447C6.0047 27.1381 5.97407 27.0091 6.54938 26.0619C7.07438 25.1978 12.1144 16.7519 12.3113 16.4325C12.5081 16.1131 12.6809 15.8419 12.7794 15.6931C12.8778 15.5444 13.1972 14.7328 12.5322 14.7328C11.8672 14.7328 4.2197 14.9297 4.2197 14.9297C4.2197 14.9297 9.50251 10.4475 11.0294 9.24218C12.5563 8.03687 21.21 0.695618 21.5009 0.695618C21.7919 0.695618 14.3303 10.745 14.1334 11.0141Z" fill="#FFC927"/>
<path d="M13.8797 15.4766C14.2734 14.91 14.6606 14.8684 14.8947 15.0084C15.1966 15.19 15.2272 15.6078 14.8466 16.1131C14.2472 16.9138 9.84157 22.8091 9.67313 23.0169C9.35376 23.4106 8.88344 23.2378 9.18969 22.6669C9.44563 22.1944 13.4728 16.0628 13.8797 15.4766Z" fill="#FFE567"/>
<path d="M7.61905 14.3259C6.86437 14.8312 6.16218 14.0766 6.66749 13.5231C7.1728 12.9697 10.4891 10.2091 11.1606 9.63812C11.8322 9.06718 15.7522 5.65687 16.0562 5.41187C16.4587 5.08812 16.7081 5.41625 16.4544 5.75312C16.2028 6.09 13.4312 8.85937 12.2084 9.98375C11.2634 10.8544 8.33655 13.8447 7.61905 14.3259Z" fill="#FFE567"/>
</svg>
